# xmcd CD database file
#
# Track frame offsets:
#	150
#	23925
#	48391
#	72189
#	86060
#	110218
#	124372
#	138342
#	152312
#	174544
#	185966
#	211228
#	231756
#	254163
#	277043
#
# Disc length: 3939 seconds
#
# Revision: 0
# Processed by: cddbd v1.5.1PL0 Copyright (c) Steve Scherf et al.
# Submitted via: CDex 1.51
#
DISCID=e60f610f
DTITLE=Monica Borrfors - På ren svenska
DYEAR=2005
DGENRE=Jazz
TTITLE0=Jag var för ung
TTITLE1=Vad tänker han på
TTITLE2=Farväl
TTITLE3=Ensamma balladen
TTITLE4=Med ögon känsliga för grönt
TTITLE5=Emelie
TTITLE6=Ensamseglaren
TTITLE7=Sommarregn
TTITLE8=Blasé som jag
TTITLE9=En valsfan
TTITLE10=En sommar vet
TTITLE11=Vår igen
TTITLE12=Nu har jag fått den jag vill ha
TTITLE13=Vilse igen
TTITLE14=Olu
EXTD=YEAR: 2005
EXTT0=
EXTT1=
EXTT2=
EXTT3=
EXTT4=
EXTT5=
EXTT6=
EXTT7=
EXTT8=
EXTT9=
EXTT10=
EXTT11=
EXTT12=
EXTT13=
EXTT14=
PLAYORDER=
